PathFileType	4	(X/Y/Z)	c:/Users/goper/Files/vsCode/490R/osim_files/C11/C11_RoM_01.trc
DataRate	CameraRate	NumFrames	NumMarkers	Units                	OrigDataRate	OrigDataStartFrame	OrigNumFrames
120.00	120.00	9	36	mm	120.0	1921	2195
                Frame#	Time	LPSI			LASI			LTH1			LTH2			LTH3			LTH4			LLFE			LMFE			LSH1			LSH2			LSH3			LSH4			LLMA			LMMA			LCAL			LMTP			LTOE			LMTP			RPSI			RASI			RTH1			RTH2			RTH3			RTH4			RLFE			RMFE			RSH1			RSH2			RSH3			RSH4			RLMA			RMMA			RCAL			RMTP			RTOE			RMTP		
		X1	Y1	Z1	X2	Y2	Z2	X3	Y3	Z3	X4	Y4	Z4	X5	Y5	Z5	X6	Y6	Z6	X7	Y7	Z7	X8	Y8	Z8	X9	Y9	Z9	X10	Y10	Z10	X11	Y11	Z11	X12	Y12	Z12	X13	Y13	Z13	X14	Y14	Z14	X15	Y15	Z15	X16	Y16	Z16	X17	Y17	Z17	X18	Y18	Z18	X19	Y19	Z19	X20	Y20	Z20	X21	Y21	Z21	X22	Y22	Z22	X23	Y23	Z23	X24	Y24	Z24	X25	Y25	Z25	X26	Y26	Z26	X27	Y27	Z27	X28	Y28	Z28	X29	Y29	Z29	X30	Y30	Z30	X31	Y31	Z31	X32	Y32	Z32	X33	Y33	Z33	X34	Y34	Z34	X35	Y35	Z35	X36	Y36	Z36

1921	16.00000	-421.54391	911.76892	420.20184	-263.80252	828.70483	348.29996	-221.42365	556.91040	234.68742	-186.55954	525.48413	226.65591	-179.36818	599.02466	220.71971	-150.62985	561.71857	217.59601	-141.28220	469.34198	221.25848	-98.12267	473.59277	328.89456	-202.04144	393.46826	214.29919	-219.00496	352.60046	213.63649	-146.88557	366.03256	203.73019	-171.80933	328.28940	205.33437	-309.53879	98.03794	265.13599	-268.33981	109.10564	355.02786	-364.41287	62.74124	323.81744	-206.79987	38.81467	216.25212	-128.10628	54.88485	277.98923	-163.67578	45.21474	327.54260	-410.28732	918.76117	503.60226	-270.49875	825.68079	576.51740	-210.86343	551.63983	680.59851	-180.24596	520.39813	683.84302	-161.23521	590.36487	679.77496	-139.74950	553.35986	685.52100	-131.25537	474.23959	682.27454	-134.75943	449.29871	576.47870	-202.50838	396.77124	699.42450	-216.62019	352.85382	700.77728	-147.24345	370.13528	699.21216	-169.75502	329.77728	703.03418	-311.39575	99.52754	676.83167	-279.79147	102.45751	583.37195	-373.42505	60.35343	631.04523	-157.94327	49.11781	618.17053	-155.37321	61.48301	667.95001	-199.25453	38.30468	727.83569
1922	16.00833	-419.76968	919.66528	420.33496	-261.74408	837.57935	348.24933	-222.92206	561.07104	236.17682	-188.50002	528.84497	228.58536	-179.75792	602.13220	222.18987	-151.94910	564.12225	219.35208	-144.68155	471.47681	223.78760	-101.57912	475.55191	330.76450	-204.96704	395.03723	215.58904	-221.76813	354.09576	215.05103	-149.71132	368.23517	205.26540	-174.34561	330.23770	206.63875	-309.66696	98.11423	265.06085	-268.47699	109.19277	355.02139	-364.54807	62.75799	323.69687	-206.79947	38.86757	216.27692	-128.08205	54.87703	278.02594	-163.69933	45.22474	327.58377	-408.46927	926.73077	503.80569	-268.13214	834.04431	576.43597	-212.76849	555.69452	679.79199	-182.82512	523.75238	682.95789	-162.50935	593.24414	678.88257	-141.72852	555.82819	684.54095	-134.55193	476.83322	681.28937	-138.40219	451.36578	575.30139	-205.91222	398.31256	698.60724	-219.57103	354.32977	700.18231	-150.47289	372.19583	698.42877	-172.27162	331.71265	702.31085	-311.50992	99.58472	677.00458	-279.91898	102.63445	583.46906	-373.43225	60.35843	631.11761	-157.95145	49.11650	618.20630	-155.38928	61.49610	667.99554	-199.20282	38.32529	727.84991
1923	16.01667	-417.92896	927.54047	420.52231	-259.54156	846.37665	348.30695	-224.63202	564.88837	237.74785	-190.64923	532.18829	230.43738	-180.39702	605.17267	223.83725	-153.33250	566.53198	221.27652	-147.93469	473.84167	225.85284	-105.05389	477.56516	332.69382	-208.38126	396.79327	217.63647	-224.65123	355.55493	216.52669	-152.79735	370.45215	206.86311	-176.95284	332.23380	207.94440	-309.73776	98.16859	264.96146	-268.60669	109.28030	355.02231	-364.63669	62.79651	323.54932	-206.73305	38.90252	216.31746	-128.08482	54.91542	278.05466	-163.68607	45.27610	327.59683	-406.47314	934.58820	504.02893	-265.70874	842.32214	576.37067	-214.77158	559.64764	678.99011	-185.50795	527.14282	682.01074	-163.87926	596.15186	677.91211	-143.44595	558.41071	682.49603	-137.93588	479.38757	680.19360	-142.19572	453.45752	574.02051	-209.41542	399.89429	697.78210	-222.62422	355.78683	699.53052	-153.70540	374.32550	697.59650	-175.28894	333.48767	701.66705	-311.59634	99.72073	677.08795	-280.00769	102.77622	583.58496	-373.51596	60.47310	631.11993	-157.97427	49.15902	618.18201	-155.37025	61.53880	667.96692	-199.15828	38.38558	727.83441
1924	16.02500	-415.95377	935.30420	420.70078	-257.37201	855.06036	348.35425	-226.12015	569.00433	239.47531	-192.90741	535.44189	232.32814	-180.94568	608.14648	225.47052	-154.89166	568.95673	223.23004	-151.31558	476.18207	227.89651	-108.72456	479.54068	334.57300	-211.90425	398.33347	219.42706	-227.61861	357.02335	218.02042	-155.94037	372.62936	208.46623	-179.66617	334.20386	209.28610	-309.82605	98.17619	264.87186	-268.78946	109.31039	355.01813	-364.71780	62.77076	323.40961	-206.72517	38.92086	216.35234	-128.05569	54.96772	278.04437	-163.65782	45.30515	327.57883	-404.53098	942.26184	504.20593	-263.23175	850.50330	576.32312	-217.03116	563.59015	678.09998	-188.41621	530.50458	681.02441	-165.24446	599.08221	676.95190	-145.64467	560.91803	681.41760	-141.47469	481.96201	679.13043	-146.23148	455.45410	572.74042	-213.02753	401.32565	696.95850	-225.69743	357.15817	698.86322	-156.98718	376.51965	696.77271	-178.13501	335.42923	700.98206	-311.66504	99.78098	677.19098	-280.14694	102.88120	583.68408	-373.56641	60.56435	631.11853	-157.93803	49.20824	618.14862	-155.32011	61.57915	667.92621	-199.13945	38.40531	727.79565
1925	16.03333	-413.99921	942.90570	420.89233	-255.07472	863.70483	348.40952	-227.68465	573.12579	241.21417	-195.28970	538.71173	234.22429	-181.72223	611.16077	227.23430	-156.45543	571.41821	225.24899	-154.84955	478.51901	230.04544	-112.18047	481.86722	336.46677	-215.36264	399.92349	221.05360	-230.74666	358.38290	219.49290	-159.32123	374.83878	210.11945	-182.54909	336.14752	210.68866	-309.91425	98.16951	264.79028	-268.96701	109.36514	355.01385	-365.70285	63.05001	323.08652	-206.73398	38.95701	216.37366	-128.05058	54.99078	278.05655	-163.67697	45.31559	327.59830	-402.63034	949.95819	504.48166	-260.70425	858.57672	576.29504	-219.42975	567.53754	677.23328	-191.72034	533.90979	679.61212	-166.76553	601.87299	675.99878	-147.99968	563.35852	680.32629	-145.25420	484.51212	678.02917	-150.38283	457.41852	571.63489	-216.85609	402.79031	696.19269	-228.91989	358.49722	698.22223	-160.39188	378.74258	695.93317	-181.13414	337.26245	700.25043	-311.76202	99.88123	677.26160	-280.29245	103.00156	583.77289	-373.59406	60.58960	631.12323	-157.92937	49.22322	618.11279	-155.33263	61.60497	667.88959	-199.32043	38.31380	727.69806
1926	16.04167	-411.97418	950.27002	421.13205	-252.71266	872.38098	348.42236	-229.37733	577.15338	242.80994	-197.84061	541.97162	236.15479	-182.54692	614.05829	228.93796	-158.22997	573.75714	227.30023	-158.59923	480.92780	232.13498	-116.68763	483.46353	338.79898	-218.66690	401.56290	222.57066	-233.85974	359.69678	221.00191	-162.61145	377.15436	211.72952	-185.51694	338.07419	212.16449	-310.04404	98.18472	264.71475	-269.12787	109.38052	355.02878	-365.72113	63.02758	323.01230	-206.73215	38.97158	216.42023	-128.04991	54.94442	278.10510	-163.72073	45.24210	327.66452	-400.46500	957.19885	504.82352	-258.12943	866.53107	576.28802	-221.71550	571.38422	676.44135	-194.52745	536.88806	678.98865	-168.50359	604.60406	675.07062	-150.37044	565.69562	679.30225	-149.26195	486.91281	677.04468	-154.55951	459.48538	570.38312	-220.86650	404.11786	695.48834	-232.38268	359.73978	697.63025	-164.08760	380.81247	695.14990	-184.06241	339.04715	699.63330	-311.87723	99.90023	677.34857	-280.43896	103.08942	583.84326	-373.59677	60.57868	631.18073	-157.95587	49.19266	618.12592	-155.33818	61.56842	667.90472	-199.35199	38.28525	727.69763
1927	16.05000	-410.12244	957.67749	421.34735	-250.31898	880.75549	348.50204	-231.18195	581.15674	244.37762	-200.40158	545.34094	238.05354	-183.37389	617.05353	230.69328	-160.03154	576.15607	229.41479	-162.30573	483.34851	234.24338	-120.97462	485.43213	340.63351	-222.92227	403.03113	224.57524	-237.24648	361.09311	222.57138	-166.15967	379.35489	213.36967	-188.57434	340.01550	213.64555	-310.15765	98.23109	264.65283	-269.29822	109.38159	355.04770	-365.78760	63.01252	322.94672	-206.72603	38.99147	216.46407	-128.02315	54.88316	278.19189	-163.70715	45.19255	327.74323	-398.23245	964.39319	505.13501	-255.51035	874.35547	576.30371	-224.42825	574.99255	675.80481	-197.49475	540.11969	678.14307	-170.29219	607.25305	674.17291	-152.76863	567.68707	677.94202	-153.17566	489.34235	676.06573	-159.00967	461.47470	569.42395	-224.80035	405.45355	694.78516	-235.67995	360.86194	697.10406	-167.78604	382.86935	694.44025	-187.34065	340.90634	699.00812	-311.91724	99.88039	677.43420	-280.54587	103.18549	583.95312	-373.45978	60.47953	631.26508	-157.96434	49.16331	618.16296	-155.30592	61.53450	667.94147	-199.11574	38.36088	727.79028
1928	16.05833	-407.14191	964.51044	421.72299	-247.88411	888.90680	348.52728	-233.09258	585.10547	245.93600	-203.02852	548.59943	239.89687	-184.51373	619.88458	232.56686	-161.98932	578.51373	231.46623	-166.28419	485.67743	236.31451	-125.33669	487.39963	342.65799	-226.41727	404.65292	226.10796	-240.59253	362.46552	224.07436	-169.72620	381.60635	215.01134	-191.73505	342.06357	215.03458	-310.28140	98.26836	264.61334	-269.51642	109.39561	355.07559	-365.86456	63.00751	322.88937	-206.71596	39.00714	216.52579	-128.01910	54.88127	278.26224	-163.71188	45.16742	327.81464	-396.10599	971.38910	505.40652	-252.85017	882.03864	576.34387	-226.78830	578.73798	675.16266	-200.72731	543.35406	677.28064	-172.09006	609.91095	673.37299	-155.56169	570.05859	677.04736	-157.27324	491.76117	675.12964	-163.48260	463.48660	568.31720	-228.97060	406.88449	694.15698	-239.23076	362.06625	696.53052	-171.66640	384.85266	693.75183	-190.57248	342.75897	698.48706	-312.02158	99.86794	677.52490	-280.64752	103.25818	584.06171	-373.45901	60.43849	631.34119	-157.96327	49.15337	618.20807	-155.30388	61.50439	667.98859	-199.14827	38.31446	727.81384
1929	16.06667	-404.96304	971.39569	422.12006	-245.52530	896.89722	348.62625	-235.04028	589.12305	247.42534	-205.87189	551.83411	241.76883	-185.67952	622.71368	234.41504	-164.11424	580.81696	233.57037	-170.19826	488.09045	238.32701	-129.79015	489.34824	344.62680	-230.86606	405.96930	228.14131	-244.15259	363.82608	225.51349	-173.48602	383.81046	216.66185	-194.94653	344.07361	216.37064	-310.45532	98.23212	264.56512	-269.74344	109.39762	355.06595	-365.93063	62.96825	322.80515	-206.72194	39.02061	216.55667	-128.01625	54.91698	278.30310	-163.74106	45.20275	327.85489	-393.84506	978.17694	505.68015	-250.15204	889.56958	576.40997	-229.31677	582.56543	674.13379	-204.11304	546.48889	676.54254	-174.13002	612.49792	672.53436	-158.35403	572.45508	676.14386	-161.36374	494.13425	674.19122	-168.05128	465.46777	567.41876	-233.24171	408.23471	693.45453	-242.99486	363.24933	696.02399	-175.55710	386.98441	693.12946	-194.00809	344.58920	697.91107	-312.15747	99.87658	677.60199	-280.79724	103.31653	584.19489	-373.50143	60.45717	631.35834	-157.98889	49.18323	618.23920	-155.28412	61.54795	667.99799	-199.18932	38.30347	727.82556
